# xmcd
#
# Track frame offsets:
#	150
#	15902
#	28138
#	45259
#	65491
#	80375
#	103185
#	118758
#	136912
#	156486
#	172080
#
# Disc length: 2478 seconds
#
# Revision: 0
# Processed by: cddbd v1.5.2PL0 Copyright (c) Steve Scherf et al.
# Submitted via: FairStars CD Ripper 1.90
#
DISCID=8c09ac0b
DTITLE=Matt Ellis - Births, Deaths, and Marriages
DYEAR=2006
DGENRE=Country
TTITLE0=Heart of Mine
TTITLE1=River too Wide
TTITLE2=Births, Deaths, and Marriages
TTITLE3=Don't Let Me Forget
TTITLE4=So Many Lied
TTITLE5=So Much to Live For
TTITLE6=Too Late to Call
TTITLE7=Trying to Believe
TTITLE8=Ghosts
TTITLE9=Won't Let this Die
TTITLE10=Wasted on You
EXTD=
EXTT0=
EXTT1=
EXTT2=
EXTT3=
EXTT4=
EXTT5=
EXTT6=
EXTT7=
EXTT8=
EXTT9=
EXTT10=
PLAYORDER=
